# xmcd
#
# Track frame offsets: 
#        150
#        15849
#        33867
#        47573
#        59614
#        75361
#        97719
#        116733
#        132348
#        148290
#        164497
#
# Disc length: 2442 seconds
#
# Revision: 0
# Processed by: cddbd v1.5.2PL0 Copyright (c) Steve Scherf et al.
# Submitted via: ExactAudioCopy v1.3
#
DISCID=8609880b
DTITLE=Delta Moon - Babylon Is Falling
DYEAR=2018
DGENRE=Blues Rock
TTITLE0=Long Way To Go
TTITLE1=Babylon Is Falling
TTITLE2=One More Heartache
TTITLE3=Might Take A Lifetime
TTITLE4=Skinny Woman
TTITLE5=Louisiana Rain
TTITLE6=Little Pink Pistol
TTITLE7=Nobody's Fault But Mine
TTITLE8=Somebody In My Home
TTITLE9=One Mountain At A Time
TTITLE10=Christmas Time In New Orleans
EXTD=
EXTT0=
EXTT1=
EXTT2=
EXTT3=
EXTT4=
EXTT5=
EXTT6=
EXTT7=
EXTT8=
EXTT9=
EXTT10=
PLAYORDER=
